<?xml version="1.0" encoding="UTF-8"?>
<svg width="190px" height="60px" viewBox="0 0 190 60" version="1.1" xmlns="http://www.w3.org/2000/svg" xmlns:xlink="http://www.w3.org/1999/xlink">
    <title>Artboard</title>
    <defs>
        <linearGradient x1="29.3581128%" y1="31.2805533%" x2="23.347229%" y2="63.3427263%" id="linearGradient-1">
            <stop stop-color="#00FEAB" offset="0%"></stop>
            <stop stop-color="#007F9F" offset="100%"></stop>
        </linearGradient>
        <linearGradient x1="5.39008455%" y1="51.2546227%" x2="5.39270491%" y2="17.8925285%" id="linearGradient-2">
            <stop stop-color="#027C9C" offset="0%"></stop>
            <stop stop-color="#70C491" offset="100%"></stop>
        </linearGradient>
    </defs>
    <g id="Artboard" stroke="none" stroke-width="1" fill="none" fill-rule="evenodd">
        <g id="Group-11">
            <path d="M75.155438,34.1081382 C75.3911789,32.2740151 75.7138943,30.2627192 76.3258896,28.5108176 C76.7072228,27.4194005 77.2980565,26.1894174 78.26324,25.4855264 C79.128752,24.8555096 80.1599599,24.6171926 81.2224871,24.6171926 C82.2623712,24.6171926 83.3386534,24.879717 83.9134042,25.8102387 C84.2926213,26.4229347 84.4959849,27.0932275 84.5484658,27.7983706 C84.5232834,28.4836886 84.4682631,29.172137 84.4026619,29.8514032 C84.294949,30.9762096 84.1908337,32.1012248 84.0898925,33.2264486 C83.9904327,34.3335169 83.8865289,35.4399592 83.7754302,36.5455667 C83.6937462,37.362773 83.6213733,38.2052301 83.6213733,39.0266101 C83.6213733,39.5274515 83.6679289,40.0410227 83.8016707,40.5253782 C83.9011305,40.8855666 84.0710586,41.2096528 84.3391769,41.4740554 C84.6407306,41.77143 85.070524,41.9559066 85.4734421,42.0748564 C86.1415158,42.2724801 86.9333853,42.314843 87.6276995,42.314843 L89.060979,42.314843 C89.1703848,42.314843 89.4558557,42.3085824 89.6069499,42.2697672 C89.6571031,42.0781954 89.66324,41.6862869 89.66324,41.5443818 C89.66324,41.0541833 89.7152977,40.5282997 89.7546584,40.0391446 C89.8244918,39.1822883 89.900039,38.3260581 89.9791836,37.4702452 C90.0765273,36.4180608 90.1732361,35.3648329 90.2707913,34.3124398 C90.370886,33.2245704 90.468018,32.136075 90.561341,31.0475796 C90.6436599,30.087216 90.7189954,29.1262265 90.7845965,28.1650283 C90.829036,27.5060044 90.8726291,26.833416 90.8726291,26.1729313 C90.8726291,24.9882326 90.7845965,23.7058698 90.4485493,22.5631165 C90.207518,21.744032 89.8274545,20.9579196 89.2264632,20.3358328 C88.6625049,19.7527699 87.9705185,19.3742172 87.1894414,19.150508 C86.1965362,18.8660718 85.1202539,18.7769638 84.0892577,18.7769638 C82.6714262,18.7769638 81.1625995,18.9716659 79.8871861,19.6164993 C78.6162165,20.2586197 77.6626719,21.4383101 76.954391,22.6326083 L75.9485772,24.3271219 L75.8241466,22.367371 C75.7970596,21.9435339 75.715164,21.5263747 75.5831152,21.1221539 C75.4637634,20.7559136 75.2610347,20.4445571 74.9791613,20.1784851 C74.644807,19.8627463 74.2158601,19.645715 73.7835273,19.492541 C73.1630673,19.2725881 72.4260066,19.2181216 71.7714763,19.2181216 L70.0250042,19.2181216 C69.963847,19.2181216 69.8533831,19.219165 69.7587904,19.2277211 C69.7147742,19.4414134 69.6967868,19.7911677 69.690015,19.9439244 C69.4894025,22.6607806 69.288155,25.3774282 69.0852147,28.0942844 C68.9493568,29.9073305 68.8105363,31.7205853 68.659442,33.5321706 C68.5659074,34.6442473 68.4755471,35.7594543 68.4137551,36.8729918 C68.3798964,37.4840184 68.3477307,38.1046444 68.3477307,38.7173405 C68.3477307,39.2628403 68.3919586,39.8279564 68.5299326,40.3573876 C68.6327783,40.7495047 68.8120176,41.1019719 69.0970652,41.3951728 C69.4064487,41.7140419 69.8191012,41.9204303 70.2393718,42.0587878 C70.8761263,42.2680978 71.6419669,42.314843 72.3089826,42.314843 L73.9215014,42.314843 C73.9923929,42.314843 74.1534332,42.3112953 74.2522582,42.2902183 C74.2808264,42.2006928 74.2966977,42.0519012 74.3011416,41.9863744 C74.4253606,40.326711 74.5567745,38.6612045 74.7137941,36.9979935 C74.8636186,36.1795351 75.0125968,35.2220931 75.155438,34.1081382 L75.155438,34.1081382 Z M57.5364482,23.4533622 C58.3922259,23.4533622 59.1963691,23.7054524 59.7391658,24.3909792 C60.1932951,24.9633992 60.4286128,25.6226318 60.4286128,26.3498953 C60.4286128,27.7658159 59.6200256,28.7616556 58.3759314,29.3991851 C56.9360918,30.1366741 55.2084535,30.3683133 53.604611,30.3935641 L52.8933675,30.4050417 L52.9930389,29.7109589 C53.0908058,29.0387879 53.2247591,28.371834 53.3847413,27.7117667 C53.5542463,27.0128842 53.8075514,26.3365396 54.1605279,25.7065227 C54.4974216,25.1046782 54.9318706,24.5710734 55.4755137,24.1384716 C56.0703681,23.6655938 56.7748399,23.4533622 57.5364482,23.4533622 L57.5364482,23.4533622 Z M10.7698056,29.06383 C12.0941026,29.06383 13.5271705,29.3413796 14.4011472,30.4135977 C15.1390544,31.3190774 15.4535167,32.3948431 15.4535167,33.5494913 C15.4535167,34.0432375 15.3872807,34.5384445 15.2835886,35.0209218 C15.1593696,35.5981416 14.9090271,36.1238164 14.5410258,36.589599 C14.1355683,37.1033789 13.5938297,37.479636 13.0004566,37.7563509 C12.23906,38.1129918 11.3354569,38.2121167 10.5010525,38.2121167 C9.45905218,38.2121167 8.40520131,37.999259 7.41229604,37.7002149 L6.95118338,37.5612314 L7.50836999,29.4188014 L7.97688924,29.3376233 C8.48286462,29.2495587 8.99222587,29.1798583 9.50370329,29.1326957 C9.92312747,29.0934631 10.3489002,29.06383 10.7698056,29.06383 Z M8.80282898,16.9223896 C9.21886729,16.8639581 9.63575207,16.811161 10.0532717,16.7656679 C10.4392605,16.7230964 10.8292699,16.6955501 11.2175865,16.6955501 C12.4803029,16.6955501 13.9303002,16.9167551 14.8243805,17.8848399 C15.5445119,18.6638571 15.9012975,19.5983437 15.9012975,20.6513629 C15.9012975,21.0777042 15.835908,21.5004979 15.7237512,21.9113966 C15.586412,22.4149509 15.3127917,22.8536046 14.9494459,23.2292357 C14.5357354,23.6568291 14.0088099,23.9564992 13.4535279,24.1687308 C12.7232388,24.4487846 11.860901,24.5189024 11.0836331,24.5189024 C10.1785488,24.5189024 9.25843961,24.3636416 8.38319318,24.1478624 L7.88716378,24.0253649 L7.92461993,23.5230626 C8.0069388,22.4111946 8.07656067,21.2978658 8.12480927,20.1841196 C8.16395834,19.2786399 8.21199532,18.372743 8.28309851,17.4693502 L8.32034304,16.9900032 L8.80282898,16.9223896 L8.80282898,16.9223896 Z M35.4741438,23.4533622 C36.3305563,23.4533622 37.1346996,23.7054524 37.6779195,24.3909792 C38.1314139,24.9633992 38.3663084,25.6226318 38.3663084,26.3498953 C38.3663084,27.7658159 37.5583561,28.7616556 36.3146851,29.3991851 C34.8744222,30.1366741 33.1469956,30.3683133 31.5429415,30.3935641 L30.8314863,30.4050417 L30.9317926,29.7109589 C31.0291363,29.0387879 31.162878,28.371834 31.3230718,27.7117667 C31.4923651,27.0128842 31.7456702,26.3365396 32.0988584,25.7065227 C32.4361753,25.1046782 32.8695662,24.5710734 33.4136326,24.1384716 C34.0082753,23.6655938 34.7131704,23.4533622 35.4741438,23.4533622 Z M1.85376176,12.1274586 C1.84699003,12.1408144 1.84085315,12.1610567 1.83725567,12.1735778 C1.79112324,12.3415683 1.77694492,12.5571389 1.76826864,12.7303465 C1.74922314,13.1020126 1.74689536,13.477435 1.74689536,13.8488925 C1.74689536,14.1445976 1.73694938,14.4409288 1.72382915,14.7366339 C1.69758868,15.3301311 1.65293757,15.9263411 1.61103748,16.5196295 C1.52617921,17.7064151 1.4345492,18.8925747 1.34186111,20.0791515 C1.17997438,22.1559741 1.01935735,24.2330054 0.849005959,26.3094106 C0.705529877,28.0675729 0.555282063,29.825109 0.424079746,31.5838973 C0.33879824,32.7233116 0.254786434,33.8627259 0.177757977,35.002975 C0.13162555,35.6862062 0.0859163557,36.3694374 0.0440162611,37.053086 C0.021161664,37.4141093 0,37.781393 0,38.1430423 C0,38.8406727 0.0833769561,39.5696057 0.34006794,40.2242472 C0.563323495,40.7941631 0.973859776,41.2205044 1.49062761,41.5491816 C2.2166843,42.0103731 3.14927883,42.2731062 3.98960851,42.4371317 C5.34988027,42.7015343 6.83331291,42.7566269 8.21643927,42.7566269 C10.4056134,42.7566269 12.78884,42.5999052 14.8978114,41.9857484 C16.3706633,41.5573202 17.878855,40.9260513 19.0732194,39.955671 C20.0326892,39.1760278 20.7854096,38.2286027 21.2188005,37.0739544 C21.655154,35.912837 21.8536504,34.6980878 21.8536504,33.461218 C21.8536504,32.0457148 21.5842624,30.646489 20.8598986,29.4100367 C20.1342652,28.1719148 18.8844573,27.4678152 17.5326502,27.0539949 L15.4899148,26.4289865 L17.4871526,27.0400131 L17.5610068,27.0216489 C18.3111878,26.8307031 19.0313193,26.5189293 19.6251156,26.0195486 C20.164738,25.5652437 20.6080748,25.029552 20.9367155,24.4091347 C21.2678955,23.7835002 21.5030016,23.1213461 21.6403408,22.4287241 C21.7759871,21.7467449 21.8536504,21.0530795 21.8536504,20.3575359 C21.8536504,20.1730593 21.8479367,19.9885827 21.8362978,19.8055669 C21.8473019,19.6164993 21.8536504,19.4276403 21.8536504,19.2381553 C21.8536504,18.1513293 21.6657348,17.0795286 21.1944646,16.0918275 C20.7424514,15.1450284 20.0400958,14.3998181 19.1635797,13.8152943 C18.0568246,13.0769706 16.6971877,12.627048 15.4046333,12.3346818 C13.5591246,11.9173139 11.5836832,11.797738 9.69500473,11.797738 C8.62231999,11.797738 7.54751907,11.8348837 6.47652726,11.8851766 C4.97955115,11.9563378 3.48236342,12.0494108 1.98686863,12.1497878 L1.96634182,12.1512486 L1.945815,12.1512486 C1.91174472,12.1512486 1.84296932,12.1527094 1.85376176,12.1274586 L1.85376176,12.1274586 Z M30.8126524,33.8489528 L31.3984073,33.8489528 C32.065423,33.8489528 32.739422,33.8168155 33.4058028,33.7838434 C34.3472852,33.7358461 35.2887676,33.6091749 36.2150136,33.4393062 C37.265267,33.2471083 38.300284,32.9760279 39.3139277,32.6427596 C40.3053517,32.3174213 41.2366765,31.8551864 42.0818734,31.2477075 C42.8982904,30.6608882 43.558111,29.9317465 44.0638748,29.0688384 C44.6223311,28.1166136 44.8108816,27.0105887 44.8108816,25.9233454 C44.8108816,25.7432511 44.8049563,25.564409 44.7918361,25.3868189 C44.8049563,25.1925342 44.8108816,24.9976234 44.8108816,24.8035473 C44.8108816,23.9980273 44.6845464,23.2060717 44.4009801,22.4500098 C44.1290527,21.7260852 43.695027,21.10692 43.1228156,20.5816625 C42.4560116,19.9687577 41.6055243,19.5584851 40.7469956,19.2761357 C39.5659631,18.8881923 38.2357409,18.7769638 36.9973604,18.7769638 C35.3888623,18.7769638 33.7088378,18.9614404 32.197895,19.5323996 C30.962477,19.9990169 29.7947764,20.6348769 28.7989085,21.4990371 C27.8908615,22.2851495 27.1226931,23.1960549 26.5308014,24.2357183 C25.964092,25.2305147 25.4911288,26.2762299 25.1474634,27.3668122 C24.831943,28.3674517 24.5976834,29.3950114 24.4770619,30.437179 C24.3782369,31.2892356 24.3014201,32.1611171 24.3014201,33.0192254 C24.3014201,34.6043887 24.5119786,36.3082931 25.2251267,37.7473775 C25.7947987,38.8957652 26.5587348,39.9277073 27.5848638,40.7192455 C28.5591469,41.4707164 29.6536281,41.9895047 30.8532828,42.2887575 C32.0876427,42.5965663 33.3503592,42.7566269 34.6234449,42.7566269 C35.6104249,42.7566269 36.5950771,42.6643886 37.5661859,42.4997369 C38.4926435,42.34385 39.4055577,42.0905077 40.261547,41.7061119 C40.97533,41.3847386 41.622242,40.9496326 42.1352008,40.3590571 C42.5914462,39.8342169 42.7950214,39.2288248 42.7950214,38.5405852 C42.7950214,38.1096528 42.7192627,37.6563913 42.4606671,37.298707 C42.2285237,36.9777511 41.9481316,36.6964452 41.6065824,36.4890133 C41.3166676,36.3135101 40.9981846,36.1686835 40.663407,36.102322 C40.474645,36.0653849 40.189809,36.0034058 39.9985075,36.0034058 C39.8647658,36.0034058 39.7788495,36.0386734 39.6969538,36.1438501 C39.467773,36.4395552 39.2267417,36.7264957 38.9816896,37.0092624 C38.6418333,37.3995014 38.2232556,37.7160749 37.7746283,37.9754691 C37.1488779,38.3371183 36.367166,38.4329043 35.6540179,38.4329043 C34.8852147,38.4329043 34.1043493,38.3137457 33.4113048,37.9725475 C32.8285126,37.684355 32.3102634,37.2976636 31.9062872,36.790353 C31.5175475,36.3028673 31.2415994,35.7490201 31.0627833,35.155523 C30.9317926,34.7306424 30.849897,34.2940756 30.8126524,33.8489528 L30.8126524,33.8489528 Z M52.8749568,33.8489528 L53.4602885,33.8489528 C54.1273041,33.8489528 54.8013031,33.8168155 55.4674723,33.7838434 C56.4085315,33.7358461 57.3504372,33.6091749 58.2768948,33.4393062 C59.3275714,33.2471083 60.3617419,32.9760279 61.375174,32.6427596 C62.3670212,32.3174213 63.298346,31.8551864 64.1435429,31.2477075 C64.9599599,30.6608882 65.6197806,29.9317465 66.1259676,29.0688384 C66.6842123,28.1166136 66.8725511,27.0105887 66.8725511,25.9233454 C66.8725511,25.7432511 66.8662026,25.564409 66.8535056,25.3868189 C66.8666258,25.1925342 66.8725511,24.9976234 66.8725511,24.8035473 C66.8725511,23.9980273 66.7468508,23.2060717 66.4632845,22.4500098 C66.1909339,21.7260852 65.7564849,21.10692 65.18512,20.5816625 C64.5178927,19.9687577 63.6674055,19.5584851 62.8093,19.2761357 C61.6278443,18.8881923 60.2978337,18.7769638 59.0590299,18.7769638 C57.4501086,18.7769638 55.7705073,18.9614404 54.2597761,19.5323996 C53.0243582,19.9990169 51.8568692,20.6348769 50.8601548,21.4990371 C49.9531659,22.2851495 49.1843626,23.1960549 48.5928941,24.2357183 C48.0263964,25.2305147 47.5534332,26.2762299 47.2097678,27.3668122 C46.8938241,28.3674517 46.6597761,29.3950114 46.5387314,30.437179 C46.4401181,31.2892356 46.3633012,32.1611171 46.3633012,33.0192254 C46.3633012,34.6043887 46.5736482,36.3082931 47.2874311,37.7473775 C47.8568915,38.8961826 48.6210391,39.9277073 49.6465334,40.7192455 C50.6208164,41.4707164 51.7152977,41.9895047 52.915164,42.2887575 C54.1493122,42.5965663 55.4120287,42.7566269 56.6853261,42.7566269 C57.6720944,42.7566269 58.6563234,42.6643886 59.628067,42.4997369 C60.5543131,42.34385 61.4676505,42.0905077 62.3234282,41.7061119 C63.0374227,41.3847386 63.6841232,40.9496326 64.1970819,40.3590571 C64.6537506,39.8342169 64.8569026,39.2288248 64.8569026,38.5405852 C64.8569026,38.1096528 64.7815671,37.6563913 64.5223367,37.298707 C64.2899816,36.9777511 64.009378,36.6964452 63.6682519,36.4890133 C63.378972,36.3135101 63.0600657,36.1686835 62.7252882,36.102322 C62.5367378,36.0653849 62.2521134,36.0034058 62.0603887,36.0034058 C61.926647,36.0034058 61.8400958,36.0386734 61.758835,36.1438501 C61.5298658,36.4395552 61.2886228,36.7264957 61.0429359,37.0092624 C60.7041377,37.3995014 60.2853483,37.7160749 59.8369327,37.9754691 C59.2111823,38.3371183 58.4290472,38.4329043 57.7156875,38.4329043 C56.9470958,38.4329043 56.1664421,38.3137457 55.4731859,37.9725475 C54.8901821,37.684355 54.3723562,37.2976636 53.96838,36.790353 C53.5796403,36.3028673 53.3034805,35.7490201 53.1244529,35.155523 C52.9936738,34.7306424 52.9122014,34.2940756 52.8749568,33.8489528 L52.8749568,33.8489528 Z" id="Shape" fill="#FFFFFF"></path>
            <path d="M154.391056,0 C157.077106,0 159.437267,0.815119478 161.425405,2.20140691 C163.111355,3.25275661 165.769895,4.92473235 168.443036,6.6330191 C169.863407,6.09148427 171.408208,5.81289121 173.029827,5.85128906 C178.349869,5.97608205 183.004377,9.47445966 185.156518,14.3902186 C181.301921,10.9586199 176.056368,9.17958925 170.674957,9.7676606 C165.269421,10.6069874 160.639038,13.7449679 157.844217,18.136304 C161.234739,14.5529921 166.0651,12.3117265 171.426831,12.3117265 C181.687064,12.3117265 190,20.5107099 190,30.6277075 C190,34.2003766 188.961597,37.5341025 187.167935,40.3521705 L187.248349,40.2661927 C183.970619,45.4876736 178.110954,48.967061 171.425561,48.967061 C162.77298,48.967061 155.502044,43.1385185 153.426296,35.2448397 C152.343242,31.1254187 151.214691,25.6109455 150.074289,21.3840522 C149.251946,18.3347625 147.036532,15.2510399 143.710765,14.6339614 C143.363925,14.5694781 142.999733,14.53588 142.619246,14.53588 L142.589831,14.53588 C142.209345,14.53588 141.845152,14.5694781 141.498313,14.6339614 C138.172546,15.2510399 135.957343,18.3347625 135.134789,21.3840522 C133.994387,25.6109455 132.866047,31.1254187 131.782781,35.2448397 C129.707245,43.1385185 122.436309,48.967061 113.783516,48.967061 C107.098335,48.967061 101.23867,45.4876736 97.9607284,40.2661927 L98.0413543,40.3521705 C96.2474801,37.5341025 95.2090772,34.2003766 95.2090772,30.6277075 C95.2090772,20.5107099 103.522014,12.3117265 113.782458,12.3117265 C119.144189,12.3117265 123.97455,14.5529921 127.365072,18.136304 C124.57004,13.7449679 119.939656,10.6069874 114.534332,9.7676606 C109.152709,9.17958925 103.907368,10.9586199 100.052559,14.3902186 C102.2047,9.47445966 106.85942,5.97608205 112.179462,5.85128906 C113.80108,5.81289121 115.34567,6.09148427 116.766253,6.6330191 C119.439394,4.92473235 122.097722,3.25275661 123.783672,2.20140691 C125.772022,0.815119478 128.131971,0 130.818232,0 C133.504917,0 136.110765,0.900471211 138.15223,2.41614268 L147.056847,2.41614268 C149.098313,0.900471211 151.704372,0 154.391056,0 Z M141.542964,18.7769638 C142.821551,18.7769638 143.706321,19.0190371 144.197271,19.5031839 C144.68801,19.9871219 144.933697,20.7020731 144.933697,21.6476201 C144.933697,21.7603094 144.927772,21.8617298 144.916345,21.9516726 C144.905129,22.041824 144.899415,22.1432444 144.899415,22.2557251 L143.769171,38.0282661 L149.933775,38.0282661 C150.070903,38.0282661 150.196603,38.0674987 150.310664,38.1463812 C150.424937,38.2252637 150.481862,38.3433789 150.481862,38.5009352 L150.344946,40.4936582 C150.299237,41.1691681 150.110898,41.715294 149.779718,42.1316185 C149.44875,42.5483603 148.76946,42.7566269 147.742062,42.7566269 L141.234638,42.7566269 C139.956051,42.7566269 139.042713,42.508919 138.494838,42.0135033 C137.946751,41.5182964 137.672707,40.8089796 137.672707,39.8859706 C137.672707,39.4356306 137.707201,38.6643348 137.775553,37.5722917 C137.844117,36.4802486 137.935535,35.2362836 138.049596,33.8403967 C138.163869,32.4440925 138.277931,30.9693231 138.392204,29.4158798 C138.506265,27.8622279 138.620538,26.3985187 138.734599,25.0251697 C138.848872,23.6518206 138.940079,22.4470882 139.008643,21.4113898 C139.077207,20.3756914 139.111277,19.6663747 139.111277,19.2836484 C139.111277,18.9457891 139.293902,18.7769638 139.659364,18.7769638 L141.542964,18.7769638 Z M171.425561,18.7769638 C164.789052,18.7769638 159.408699,24.082753 159.408699,30.6285422 C159.408699,37.1734967 164.789052,42.479912 171.425561,42.479912 C178.064187,42.479912 183.44327,37.1734967 183.44327,30.6285422 C183.44327,24.082753 178.064187,18.7769638 171.425561,18.7769638 Z M113.783516,18.7769638 C107.145102,18.7769638 101.765807,24.082753 101.765807,30.6285422 C101.765807,37.1734967 107.145102,42.479912 113.783516,42.479912 C120.420237,42.479912 125.80059,37.1734967 125.80059,30.6285422 C125.80059,24.082753 120.420237,18.7769638 113.783516,18.7769638 Z M113.782458,23.0489327 C114.366097,23.0489327 114.934076,23.1136248 115.480682,23.2350788 C113.543331,23.7962299 112.128462,25.5621134 112.128462,27.6539613 C112.128462,30.1978185 114.219446,32.2594072 116.79863,32.2594072 C118.920298,32.2594072 120.71121,30.8645637 121.279612,28.9540622 C121.402773,29.4926755 121.468374,30.0532006 121.468374,30.6289596 C121.468374,34.8149508 118.027276,38.207943 113.782458,38.207943 C109.537428,38.207943 106.096965,34.8149508 106.096965,30.6289596 C106.096965,26.4423423 109.537428,23.0489327 113.782458,23.0489327 Z M171.425984,23.0489327 C172.009623,23.0489327 172.577602,23.1136248 173.124208,23.2350788 C171.186857,23.7962299 169.771989,25.5621134 169.771989,27.6539613 C169.771989,30.1978185 171.862973,32.2594072 174.442156,32.2594072 C176.563825,32.2594072 178.354736,30.8645637 178.923139,28.9540622 C179.046299,29.4926755 179.111901,30.0532006 179.111901,30.6289596 C179.111901,34.8149508 175.670802,38.207943 171.425984,38.207943 C167.181166,38.207943 163.740491,34.8149508 163.740491,30.6289596 C163.740491,26.4423423 167.181166,23.0489327 171.425984,23.0489327 Z M142.616495,8.7357185 L142.592371,8.7357185 L142.53079,8.73613587 C141.798808,8.7449006 141.084179,8.91664748 140.410391,9.22069999 C139.709729,9.53748221 139.041867,10.0038908 138.432411,10.5986401 C137.777034,11.2399258 137.16779,12.0504542 136.652503,13.0066441 C136.549658,13.1971725 136.449774,13.3952136 136.354124,13.598263 C136.51199,13.453019 136.671125,13.3146616 136.831742,13.183608 C137.242914,12.8474182 137.678844,12.5450352 138.134031,12.2804239 C138.59197,12.0139346 139.06451,11.7885559 139.544668,11.6070009 C140.02271,11.4262806 140.526569,11.2845842 141.048839,11.1875461 C141.562221,11.0925949 142.078354,11.0420934 142.58835,11.0420934 L142.620516,11.0420934 C143.1303,11.0420934 143.646433,11.0925949 144.160027,11.1875461 C144.682085,11.2845842 145.185944,11.4262806 145.664198,11.6070009 C146.144356,11.7885559 146.616896,12.0139346 147.074623,12.2804239 C147.52981,12.5450352 147.965952,12.8474182 148.376912,13.183608 C148.53774,13.3146616 148.696664,13.453019 148.854319,13.598263 C148.759091,13.3952136 148.658573,13.1971725 148.556362,13.0066441 C148.040864,12.0504542 147.431408,11.2399258 146.776032,10.5986401 C146.166787,10.0038908 145.499137,9.53748221 144.798474,9.22069999 C144.124264,8.91664748 143.409634,8.7449006 142.678075,8.73613587 L142.616495,8.7357185 Z" id="Combined-Shape" fill="url(#linearGradient-1)"></path>
            <path d="M142.604644,48.081615 C142.604644,48.081615 144.775408,45.1756911 149.878755,45.818855 C154.982313,46.4620189 157.240686,50.6557314 161.024815,51.5380472 C164.808097,52.4195281 166.83221,49.9729176 166.83221,49.9729176 C166.362421,53.3168691 163.488033,58.1180605 154.629972,58.8995819 C145.772334,59.6811033 142.604644,55.6443211 142.604644,55.6443211 C142.604644,55.6443211 139.436743,59.6811033 130.578682,58.8995819 C121.721045,58.1180605 118.846656,53.3168691 118.377079,49.9729176 C118.377079,49.9729176 120.40098,52.4195281 124.184262,51.5380472 C127.968391,50.6557314 130.226552,46.4620189 135.330322,45.818855 C140.433669,45.1756911 142.604644,48.081615 142.604644,48.081615 Z" id="Path" fill="url(#linearGradient-2)"></path>
        </g>
    </g>
</svg>